<svg width="56" height="56" viewBox="0 0 56 56" fill="none" xmlns="http://www.w3.org/2000/svg">
<circle cx="28" cy="28" r="28" fill="#02382B"/>
<path d="M15 19L4 28L15 37" stroke="#0B7B2A" stroke-linecap="round" stroke-linejoin="round"/>
<path d="M41 37L52 28L41 19" stroke="#0B7B2A" stroke-linecap="round" stroke-linejoin="round"/>
<path d="M22.6748 42V38.1963H25.6777C28.6006 38.1963 30.7961 37.3621 32.2642 35.6938C33.7456 34.0256 34.4863 31.5231 34.4863 28.1865C34.4863 24.5697 33.7456 21.867 32.2642 20.0786C30.7961 18.2769 28.6006 17.376 25.6777 17.376H22.7549L22.2744 13.5723H25.6777C34.3529 13.5723 38.6904 18.4437 38.6904 28.1865C38.6904 37.3955 34.3529 42 25.6777 42H22.6748ZM18.791 42V13.5723H22.9551V42H18.791Z" fill="#89FFB8"/>
</svg>
