<svg width="56" height="56" viewBox="0 0 56 56" fill="none" xmlns="http://www.w3.org/2000/svg">
<g clip-path="url(#clip0_1_2)">
<circle cx="28" cy="28" r="28" fill="#02382B"/>
<path d="M15 20L4 28L15 36" stroke="#00C437" stroke-linecap="round" stroke-linejoin="round"/>
<path d="M41 36L52 28L41 20" stroke="#00C437" stroke-linecap="round" stroke-linejoin="round"/>
<path d="M37.1055 27.293C37.1055 29.2031 36.8652 30.8906 36.3848 32.3555C35.9043 33.8086 35.1953 35.0273 34.2578 36.0117C33.3203 36.9961 32.1602 37.7402 30.7773 38.2441C29.4062 38.748 27.7656 39 25.8555 39H21.373C21.1621 39 20.9453 38.9238 20.7227 38.7715C20.5 38.6074 20.3887 38.3145 20.3887 37.8926V17.3613C20.3887 16.9395 20.5 16.6523 20.7227 16.5C20.9453 16.3359 21.1621 16.2539 21.373 16.2539H26.1543C28.0879 16.2539 29.7168 16.5176 31.041 17.0449C32.377 17.5723 33.4902 18.3223 34.3809 19.2949C35.2832 20.2559 35.9629 21.416 36.4199 22.7754C36.877 24.123 37.1055 25.6289 37.1055 27.293ZM34.8027 27.3984C34.8027 26.0742 34.6328 24.8496 34.293 23.7246C33.9648 22.5879 33.4492 21.6094 32.7461 20.7891C32.0547 19.9688 31.1758 19.3301 30.1094 18.873C29.043 18.4043 27.6836 18.1699 26.0312 18.1699H22.5332V37.084H26.0488C27.5957 37.084 28.9023 36.8965 29.9688 36.5215C31.0469 36.1348 31.9434 35.543 32.6582 34.7461C33.373 33.9492 33.9062 32.9473 34.2578 31.7402C34.6211 30.5215 34.8027 29.0742 34.8027 27.3984Z" fill="#C2FFDB"/>
</g>
<defs>
<clipPath id="clip0_1_2">
<rect width="56" height="56" fill="white"/>
</clipPath>
</defs>
</svg>
